<?xml version="1.0" encoding="UTF-8"?><svg id="_이어_1" xmlns="http://www.w3.org/2000/svg" viewBox="0 0 328.2 74.66"><defs><style>.cls-1{fill:#fff;}</style></defs><path class="cls-1" d="M190.1,63.55c-4.27-.77-7.75-4.1-7.75-7.56v-1.63h-2.62v1.63c0,3.43-3.48,6.77-7.75,7.56l1.06,2.04c3.53-.72,6.58-2.98,7.99-5.95,1.42,2.98,4.46,5.23,7.99,5.95l1.08-2.04Zm-18.79,6.26v2.04h19.63v-2.04h-19.63Z"/><path class="cls-1" d="M199.6,56.9h4.99v6.67h-4.99v-6.67Zm3.72,13.13v-4.46h6.86v-1.99h-3.14v-6.67h3.19v-1.99h-16.3v1.99h3.19v6.67h-3.12v1.99h6.84v4.46h-8.54v2.04h19.68v-2.04h-8.66Z"/><path class="cls-1" d="M215.22,66.72c3.62-.65,6.5-2.45,7.92-4.99,1.42,2.54,4.3,4.34,7.94,4.99l.94-2.04c-4.51-.67-7.49-3.38-7.61-6.46h6.77v-2.02h-6.79v-2.81h-2.47v2.81h-6.82v2.02h6.79c-.12,3.07-3.1,5.78-7.61,6.46l.94,2.04Zm-1.87,3.24v2.04h19.63v-2.04h-19.63Z"/><path class="cls-1" d="M239.96,65.93c1.03,0,1.85-.84,1.85-1.94s-.82-1.94-1.85-1.94-1.85,.82-1.85,1.94,.82,1.94,1.85,1.94Z"/><path class="cls-1" d="M261.76,59.78h-9.77v-3.89h9.77v3.89Zm2.42-5.86h-14.62v7.82h14.62v-7.82Zm-12.24,14.04h-2.47v6.26h15.07v-2.02h-12.6v-4.25Zm-4.87-4.08v1.99h8.78v4.06h2.47v-4.06h8.4v-1.99h-19.66Z"/><path class="cls-1" d="M281.13,55.46h-5.18v-2.42h-2.47v2.42h-5.23v1.99h12.89v-1.99Zm-9.29,7.13c0-1.34,1.18-2.16,2.88-2.16s2.86,.82,2.86,2.16-1.15,2.14-2.86,2.14-2.88-.82-2.88-2.14Zm4.1,3.94c2.4-.38,3.96-1.87,3.96-3.94,0-2.45-2.11-4.06-5.18-4.06s-5.21,1.61-5.21,4.06c0,2.06,1.56,3.53,3.96,3.94v2.11c-2.02,.07-3.96,.07-5.62,.07l.34,2.04c3.72,0,8.74-.05,13.37-.86l-.19-1.82c-1.73,.26-3.58,.38-5.42,.48v-2.02Zm12.19-4.51h-3.07v-9.07h-2.47v21.7h2.47v-10.58h3.07v-2.04Z"/><path class="cls-1" d="M307.48,52.97h-2.35v16.25h2.35v-16.25Zm-6.6,15.62h2.33v-15.22h-2.33v4.82h-3.05v2.04h3.05v8.35Zm-1.13-4.78c-2.69-1.25-4.01-3.79-4.01-6.34v-3.02h-2.4v3.02c0,2.59-1.44,5.5-4.32,6.89l1.37,1.87c2.02-.94,3.38-2.69,4.18-4.7,.72,1.82,2.02,3.31,3.84,4.15l1.34-1.87Zm-4.1,8.4v-4.92h-2.5v6.94h14.93v-2.02h-12.43Z"/><path class="cls-1" d="M313.6,62.9h6.7v-1.97h-6.7v-4.06h7.58v-2.04h-10.06v14.76h1.7c3.94,0,6.65-.1,9.74-.65l-.22-1.99c-2.83,.48-5.3,.6-8.76,.62v-4.68Zm12.07-9.98v7.97h-4.15v2.04h4.15v11.74h2.5v-21.74h-2.5Z"/><path class="cls-1" d="M151.44,33.94c-.13,1.47-.78,2.52-1.74,3.23,16.81-7.6,26.72-16.06,25.45-23.32C172.77,.17,131.66-4.11,83.32,4.32c-21.11,3.68-40.11,9.16-54.61,15.32,.78-.19,1.63-.27,2.54-.27,2.57,0,6.11,.62,6.11,4.56v1.27h-4.52v-1.12c0-.99-.63-1.64-1.68-1.64-1.13,0-1.53,.64-1.66,1.21-.04,.21-.07,.59,.02,.96,.51,2.12,7.39,3.25,8.15,7.05,.07,.39,.24,1.41,.02,2.98-.43,3.02-3.13,4.14-6.4,4.14s-6.59-1.22-6.59-5.26v-1.4h4.86v1.75c0,.99,.69,1.64,1.83,1.64,1.2,0,1.61-.62,1.76-1.22,.08-.34,.14-.91-.04-1.34-.93-2.35-7.37-3.42-8.16-7.12-.19-.91-.17-1.63-.04-2.45,.21-1.27,.82-2.2,1.71-2.83C9.17,28.26-1.18,36.92,.11,44.33c2.38,13.69,43.5,17.96,91.84,9.54,21.57-3.76,40.93-9.4,55.54-15.72-.76,.18-1.57,.26-2.42,.26-3.22,0-6.07-1.18-6.38-4.47-.05-.6-.06-.86-.07-1.2v-7.63c0-.32,.04-.89,.08-1.2,.4-3.39,3.15-4.48,6.36-4.48s6.03,1.08,6.36,4.48c.06,.58,.04,1.2,.04,1.2v.6h-4.57v-1.01s0-.43-.06-.69c-.08-.4-.42-1.32-1.81-1.32s-1.71,.87-1.8,1.32c-.05,.24-.08,.56-.08,.85v8.29c0,.23,0,.48,.05,.69,.07,.47,.53,1.3,1.84,1.3s1.77-.83,1.85-1.31c.03-.21,.04-.46,.04-.69v-2.63h-1.86v-2.64h6.43v4.87c0,.34-.01,.59-.07,1.2Zm-100.82,4.12l-2.41-16.44h-.1l-2.48,16.44h-4.89l3.36-18.12h8.06l3.35,18.12h-4.88Zm24.11,0l-.12-16.29h-.09l-3.03,16.29h-4.6l-3.03-16.29h-.1l-.11,16.29h-4.54l.4-18.12h7.39l2.24,13.85h.1l2.24-13.85h7.39l.39,18.12h-4.53Zm21.82-3.48c-.42,2.99-3.1,4.1-6.34,4.1s-6.52-1.21-6.52-5.21v-1.38h4.82v1.74c0,.97,.69,1.62,1.81,1.62,1.19,0,1.6-.6,1.75-1.21,.08-.34,.14-.89-.04-1.33-.92-2.32-7.3-3.39-8.07-7.05-.19-.91-.17-1.62-.04-2.42,.47-2.93,3.08-3.98,6.27-3.98,2.54,0,6.06,.61,6.06,4.52v1.26h-4.48v-1.11c0-.99-.61-1.62-1.66-1.62-1.12,0-1.51,.62-1.64,1.2-.04,.2-.07,.58,.02,.94,.51,2.1,7.31,3.22,8.07,6.98,.08,.38,.24,1.39,.02,2.95Zm17.01-.46c-.32,3.38-3,4.48-6.33,4.48s-6.01-1.1-6.33-4.48c-.01-.17-.05-.86-.04-1.19v-13h4.58v13.41c0,.23,0,.5,.04,.69,.1,.45,.48,1.32,1.75,1.32s1.65-.87,1.74-1.31c.04-.2,.05-.46,.04-.69v-13.41h4.58v13c.01,.33-.02,1.02-.04,1.19Zm20.33,3.75h-6.45l-4.48-14.71h-.1l.25,14.71h-4.46V19.94h6.73l4.17,14.23h.1l-.25-14.23h4.48v17.93Z"/><path class="cls-1" d="M184.22,35.37c-.61-.24-1.21-.54-1.8-.9-.59-.36-1.14-.76-1.65-1.19-.51-.43-.97-.9-1.38-1.39-.41-.49-.74-.99-1-1.49-.26,.61-.59,1.19-1,1.75-.41,.56-.86,1.08-1.36,1.57-.5,.49-1.04,.94-1.61,1.36-.57,.42-1.16,.79-1.75,1.12l-1.83-2.03c.8-.41,1.56-.9,2.3-1.47,.74-.57,1.39-1.22,1.96-1.93,.57-.71,1.01-1.49,1.35-2.32,.33-.83,.5-1.71,.5-2.64v-2h2.89v1.97c0,.93,.15,1.77,.46,2.53,.3,.76,.72,1.45,1.25,2.07,.53,.62,1.15,1.17,1.86,1.64,.71,.47,1.48,.87,2.29,1.21l-1.47,2.14Zm-9.22,11.5v-9.39h15.49v9.39h-15.49Zm2.78-2.39h9.94v-4.61h-9.94v4.61Zm10-8.22v-13.25h2.78v4.94h3.61v2.5h-3.61v5.8h-2.78Z"/><path class="cls-1" d="M207.34,35.92c-.61-.24-1.21-.54-1.8-.9-.59-.36-1.14-.76-1.65-1.19-.51-.43-.97-.9-1.37-1.39-.41-.49-.74-.99-1-1.49-.26,.61-.59,1.19-1,1.75-.41,.56-.86,1.08-1.36,1.57-.5,.49-1.04,.94-1.61,1.36-.58,.42-1.16,.79-1.75,1.12l-1.83-2.03c.8-.41,1.56-.9,2.3-1.47,.74-.57,1.39-1.22,1.96-1.93,.56-.71,1.01-1.49,1.35-2.32,.33-.83,.5-1.71,.5-2.64v-2.55h2.89v2.53c0,.93,.15,1.77,.46,2.53,.31,.76,.72,1.45,1.25,2.07,.53,.62,1.15,1.17,1.86,1.64,.71,.47,1.48,.87,2.29,1.21l-1.47,2.14Zm-1.44,11.72c-1.24,0-2.38-.11-3.42-.32-1.04-.21-1.93-.53-2.68-.96-.75-.43-1.33-.95-1.75-1.58-.42-.63-.62-1.35-.62-2.17s.21-1.54,.62-2.17c.42-.63,1-1.16,1.75-1.58,.75-.43,1.64-.74,2.68-.96,1.04-.21,2.18-.32,3.42-.32s2.38,.11,3.42,.32c1.04,.21,1.93,.53,2.68,.96,.75,.43,1.33,.95,1.75,1.58,.42,.63,.62,1.35,.62,2.17s-.21,1.54-.62,2.17c-.42,.63-1,1.16-1.75,1.58-.75,.43-1.64,.75-2.68,.96-1.04,.21-2.18,.32-3.42,.32Zm0-2.39c1.76,0,3.12-.23,4.08-.68,.96-.45,1.44-1.11,1.44-1.96s-.48-1.5-1.44-1.96c-.96-.45-2.32-.68-4.08-.68s-3.12,.23-4.08,.68c-.96,.45-1.44,1.11-1.44,1.96s.48,1.5,1.44,1.96c.96,.45,2.32,.68,4.08,.68Zm.47-17.63h4.8v-4.61h2.78v14.3h-2.78v-7.19h-4.8v-2.5Z"/><path class="cls-1" d="M236.3,35.87h-6.89v5.86h9.47v2.44h-22.38v-2.44h10.02v-5.86h-6.89v-11.91h2.83v9.41h13.83v2.5Z"/><path class="cls-1" d="M261.73,33.43v2.28h-22.38v-2.28h22.38Zm-19.24-1.61v-8.5h2.78v2.25h10.55v-2.25h2.78v8.5h-16.11Zm0,15.05v-5.89h13.33v-1.44h-13.33v-2.17h16.11v5.72h-13.33v1.55h13.88v2.22h-16.66Zm13.33-17.33v-1.8h-10.55v1.8h10.55Z"/><path class="cls-1" d="M263.12,40.15c1.74-1.04,3.21-2.17,4.42-3.42,1.2-1.24,2.17-2.55,2.92-3.94-.89,.09-1.8,.15-2.74,.17-.93,.02-1.74,.03-2.4,.03h-2.2v-2.39h2.31c.89,0,1.87,0,2.94-.03,1.07-.02,2.12-.08,3.14-.19,.37-1.15,.61-2.3,.72-3.44h-8.39v-2.44h11.39c-.02,3.8-.89,7.17-2.62,10.12-1.73,2.95-4.27,5.47-7.62,7.54l-1.86-2Zm15.77,7V23.01h2.78v8.64h3.89v2.5h-3.89v12.99h-2.78Z"/><path class="cls-1" d="M295.22,42.34v-4.86h-10.16v-2.39h22.38v2.39h-9.27v4.86h-2.94Zm1.03-19.24c1.24,0,2.38,.11,3.42,.33,1.04,.22,1.93,.55,2.68,.97,.75,.43,1.34,.96,1.76,1.6,.43,.64,.64,1.38,.64,2.24s-.21,1.6-.64,2.24c-.43,.64-1.01,1.18-1.76,1.61-.75,.44-1.64,.76-2.68,.97-1.04,.21-2.18,.32-3.42,.32s-2.38-.11-3.42-.32c-1.04-.21-1.93-.54-2.68-.97-.75-.43-1.34-.97-1.76-1.61-.43-.64-.64-1.38-.64-2.24s.21-1.6,.64-2.24c.43-.64,1.01-1.17,1.76-1.6,.75-.43,1.64-.75,2.68-.97,1.04-.22,2.18-.33,3.42-.33Zm-7.97,23.6v-7.22h2.83v4.72h14.02v2.5h-16.86Zm7.97-15.72c.83,0,1.6-.06,2.29-.17,.69-.11,1.29-.28,1.79-.51,.5-.23,.89-.52,1.17-.86,.28-.34,.42-.75,.42-1.21s-.14-.86-.42-1.21c-.28-.34-.67-.63-1.17-.86-.5-.23-1.1-.4-1.79-.51-.7-.11-1.46-.17-2.29-.17s-1.6,.06-2.29,.17c-.69,.11-1.29,.28-1.79,.51-.5,.23-.89,.52-1.17,.86-.28,.34-.42,.75-.42,1.21s.14,.87,.42,1.21c.28,.34,.67,.63,1.17,.86,.5,.23,1.1,.4,1.79,.51,.69,.11,1.46,.17,2.29,.17Z"/><path class="cls-1" d="M321.06,33.7h-8.75v4.94h1.55c1.5,0,3.1-.03,4.79-.08,1.69-.06,3.41-.18,5.15-.39v2.44c-1.74,.22-3.47,.37-5.18,.43-1.71,.07-3.36,.1-4.96,.1h-4.14V24.32h11.69v2.44h-8.91v4.55h8.75v2.39Zm4.36,13.44V23.01h2.78v24.13h-2.78Z"/></svg>