<?xml version="1.0" encoding="utf-8"?>
<!-- Generator: Adobe Illustrator 27.2.0, SVG Export Plug-In . SVG Version: 6.00 Build 0)  -->
<svg version="1.1" id="Layer_1" xmlns="http://www.w3.org/2000/svg" xmlns:xlink="http://www.w3.org/1999/xlink" x="0px" y="0px"
	 viewBox="0 0 184.9 47.1" style="enable-background:new 0 0 184.9 47.1;" xml:space="preserve">
<style type="text/css">
	.st0{fill:#BD1138;}
	.st1{fill:#0087CB;}
	.st2{fill:#2D9646;}
	.st3{fill:#FFFFFF;}
</style>
<path class="st0" d="M26.2,6.3c0.1,0.1,0.2,0.3,0.2,0.4c0.1,0.4,0.5,0.7,0.6,1.1C27,7.9,27.2,8,27.2,8c0.1,0.1,0,0.3,0.2,0.5
	s0,0.2,0,0.4L27.8,9c0.9,1.3,0.9,3,0,4.3c-0.2,0.2-0.3,0.4-0.4,0.6c-0.1,0.1-0.2,0.2-0.3,0.2s0.1,0.2,0.2,0.3
	c-0.4,0.1-0.5,0.5-0.8,0.7h-0.3c-0.2,0.2-0.5,0.4-0.7,0.5c-0.1,0.1-0.1,0.3,0,0.4c-0.5,0.3-1,0.5-1.6,0.5c-0.1,0-0.1,0.2-0.2,0.2
	c-0.4,0-1,0-1.4,0.1c-0.2-0.1-0.3-0.2-0.5-0.2c-0.2,0-0.3,0-0.5,0c-0.3-0.1-0.6-0.3-0.9-0.3c-0.2,0-0.5,0.1-0.7,0
	c-0.6-0.4-1.1-1-1.5-1.5c-0.2-0.3-0.6-0.4-0.7-0.8c0-0.1,0-0.4-0.1-0.4c-0.4-0.1-0.2-0.3-0.2-0.5c-0.1-0.2-0.2-0.4-0.3-0.5
	c-0.1-0.2,0-0.5-0.1-0.8c0-0.1,0.1-0.1,0.1-0.2c-0.1-0.4,0.1-0.9,0-1.2c0-0.2,0-0.5,0.1-0.7c0.2-0.5,0.5-1,0.8-1.4
	c0-0.1,0-0.2,0-0.3c0.1-0.1,0.2-0.1,0.2-0.2c0.1-0.4,0.3-0.7,0.5-1c0.4-0.4,0.8-0.8,1.2-1.1c0.3-0.2,0.6-0.5,0.8-0.8
	c0.1-0.1,0.4,0,0.4,0c0.2-0.2,0.6-0.2,0.8-0.4s0.2,0.2,0.5,0.1c0.2,0,0.3-0.1,0.4-0.2c0.2-0.1,0.5,0.1,0.8,0.1c0.3,0,0.6,0,0.8,0.2
	c0.4,0.2,1.2,0.2,1.4,0.7C25.6,5.7,26,6,26.2,6.3z"/>
<path class="st1" d="M40.9,11.8c0-0.2,0-0.4-0.1-0.6c0-0.2,0.2-0.5,0.1-0.8c0-0.1-0.2-0.2-0.1-0.2c0.1-0.4,0.2-0.9,0.1-1.4
	c0-0.1-0.1-0.2-0.1-0.3c0-0.1,0-0.2,0.1-0.3c0-0.4-0.1-0.8-0.2-1.1c0-0.2-0.2-0.2-0.2-0.5s-0.2-0.2-0.2-0.2c0-0.6-0.1-1.1-0.2-1.7
	c-0.1-0.7-0.8-1.1-1-1.8c0-0.1,0.2,0,0.3,0c0.6,0.4,1,1,1.2,1.7c0.1,0.2,0,0.4,0.1,0.6c0.4,0.5,0.6,1.1,0.6,1.8c0,0.1,0.1,0,0.2,0.1
	c0,0.1,0,0.2,0,0.3c0.3,0.4,0.1,0.7,0.2,1.1c0,0.1,0.1,0.2,0.1,0.3c0,0.1-0.2,0.2-0.2,0.3c0.3,0.3,0.4,0.8,0.3,1.2
	c0.3,0.1,0.2,0.5,0.2,0.8c0,0.1,0.1,0.1,0.2,0.1c0.1-0.1,0.2-0.2,0.2-0.4c0.1-0.5,0.1-1,0-1.6c-0.1-0.2-0.1-0.4,0-0.6
	c-0.1,0-0.2-0.2-0.2-0.3c-0.2-0.9-0.3-1.9-0.6-2.8c0,0,0.1-0.1,0.1-0.1c-0.2-0.8-0.6-1.6-1-2.3c0-0.2-0.3-0.3-0.4-0.5V2.5
	c0.3,0,0.5,0.3,0.7,0.6c0.4,0.4,0.6,0.9,0.8,1.5C42,5.1,42.2,5.5,42.4,6c0.1,0.3,0.2,0.5,0.4,0.7c0,0.2,0.1,0.4,0.1,0.7
	c0.1,0.5,0.2,1,0.3,1.5c0.1,0.3,0.1,0.7,0,1.1c-0.2,0.6,0.2,1.2,0.4,1.8c0.1,0.2,0,0.5-0.1,0.7c0,0.1,0.1,0.2,0.1,0.2
	c-0.1,0.3,0,0.5-0.1,0.8c-0.1,0.1,0.1,0.2,0,0.4s-0.1,0-0.2,0.1s0,0.4,0,0.6c-0.2,0.4-0.1,0.9-0.5,1.2c-0.1,0-0.2,0.1-0.2,0.2
	s0.1,0.1,0.2,0.2s-0.1,0-0.2,0.1s0.2,0.3,0.3,0.4c-0.1,0.5-0.5,1-0.5,1.6c0,0.1-0.1,0.3-0.1,0.5c-0.1,0.3-0.4,0.6-0.5,0.9
	c0,0.1-0.3,0.1-0.3,0.3s-0.2,0.5-0.3,0.7s-0.3,0.1-0.4,0.2c-0.1,0.2-0.2,0.5-0.3,0.7c-0.2,0.3-0.4,0.6-0.6,1c-0.2,0.5-0.6,0.9-1,1.2
	c-0.1,0-0.2,0-0.3,0.1c-0.2,0.4-0.5,0.7-0.8,0.9c-0.1,0-0.2,0.3-0.2,0.3c-0.3,0.2-0.5,0.5-0.8,0.7c-0.1,0-0.2,0.1-0.3-0.1
	c-0.5,0.8-1,1.4-1.7,2c-0.3,0.2-0.7,0.2-0.9,0.4c-0.7,0.6-1.4,1.1-2.1,1.6c-0.1,0-0.3,0.3-0.3,0.3c-0.2,0-0.1,0-0.3,0
	c0,0,0,0.4-0.3,0.5c-0.6,0.1-0.8,0.9-0.9,1.2s-0.1,0-0.2,0.1s0,0.2-0.1,0.2c-0.3,0.2-0.5,0.5-0.8,0.8c-0.1,0.1-0.1,0-0.2,0
	c-0.2,0.3-0.4,0.5-0.5,0.9c-0.2,0.6-0.6,1.2-1,1.7c-0.1,0.1,0.2,0.5,0.2,0.7S27.1,36,27,36.2c-0.1,0.5-0.1,1.1-0.2,1.6
	c-0.1,0.5,0,0.9,0.1,1.4c0,0.4,0,0.9,0,1.3c0,0.3,0.2,0.7,0.2,1c0,0.5-0.1,0.4,0,0.8c0,0.2,0,0.4,0,0.6c0,0.3-0.1,0.5-0.1,0.8
	c-0.1,0.1-0.2,0.2-0.2,0.3c-0.1,0.8-0.5,1.5-1.1,2c-0.3,0.2-0.6,0.5-1,0.5c-0.3,0.1-0.7,0.3-1,0.4c-0.5,0.1-1,0.2-1.5,0.1
	c-0.6-0.1-1.1-0.4-1.5-0.9c-0.2-0.3-0.6-0.2-0.8-0.6c0-0.2-0.4-0.2-0.4-0.3c-0.3-0.3-0.5-0.6-0.7-0.9c-0.1-0.4,0-0.7-0.2-1.1
	c-0.2-0.2-0.3-0.4-0.5-0.7s0.1-0.8-0.1-1.1c-0.1-0.1-0.3-0.2-0.3-0.4c-0.1-0.4-0.2-0.7-0.3-1.1c-0.1-0.7-0.1-1.5,0-2.2
	c0-0.1-0.2-0.2-0.2-0.3c0.1-0.6,0.2-1.1,0.2-1.7c0.1-0.3,0-0.6,0.3-0.8c0,0-0.1-0.1-0.1-0.2c0.1-0.4,0.2-0.8,0.2-1.3
	c0-0.1,0.2-0.1,0.2-0.2c-0.1-0.4-0.1-0.9,0-1.4c0-0.2,0.4-0.4,0.5-0.5c0-0.2,0-0.4,0.1-0.5c0-0.1,0.1,0,0.2-0.1s0-0.2,0-0.2
	c0-0.2,0.4-0.4,0.5-0.6c0.2-0.4,0.4-0.8,0.7-1.2c0.1-0.2,0.2-0.4,0.3-0.6c0.1-0.1,0.1,0,0.1-0.1s0-0.2,0-0.3
	c0.2-0.2,0.4-0.3,0.4-0.5c0.1-0.2,0.2-0.4,0.4-0.6c0.3-0.2,0.6-0.4,0.8-0.7c0.2-0.2,0.3-0.1,0.5-0.3s0.3-0.6,0.5-0.8
	c0.4-0.4,0.8-0.8,1.3-1.1c0.3-0.3,0.7-0.5,1.1-0.7c0.4-0.3,0.6-0.8,0.9-1s0.5-0.2,0.7-0.3s0.4-0.5,0.7-0.5c0.3,0,0.6-0.1,0.9-0.3
	c0.4-0.2,0.2-0.3,0.7-0.6c0.4-0.2,0.7-0.5,1.1-0.6c0.1-0.1,0.2-0.1,0.2-0.2c0.4-0.4,0.8-0.7,1.2-0.9c0.1,0,0.3,0.1,0.5,0
	s-0.1-0.2,0-0.4c0.2-0.2,0.4-0.5,0.7-0.7c0.1,0,0.2,0.1,0.4,0s0.1-0.2,0.2-0.2s-0.1-0.3,0-0.4s0.2-0.4,0.3-0.4s0.5-0.2,0.5-0.4
	c0-0.3,0.2-0.5,0.4-0.7c0-0.1,0-0.1,0-0.2c0.2-0.2,0.3-0.3,0.5-0.5s0.1-0.5,0.2-0.7c0.3-0.3,0.6-0.7,0.7-1.1c0-0.2-0.2-0.5-0.1-0.7
	s0.4-0.2,0.4-0.3c0-0.3,0-0.6-0.1-0.9c0-0.2,0.2-0.4,0.2-0.6c0-0.6,0-1.1-0.1-1.7c0.2,0,0.2-0.2,0.2-0.3c-0.1-0.4-0.2-0.9-0.4-1.3
	c0-0.3,0.2-0.5,0.2-0.8c-0.1-0.3-0.2-0.5-0.5-0.7c-0.2-0.3-0.1-0.7-0.2-1s-0.3-0.6-0.4-1.1c0-0.2-0.3-0.2-0.4-0.4
	c-0.1-0.3-0.1-0.6-0.2-0.9c0-0.1-0.2-0.1-0.3-0.2c-0.2-0.4-0.2-1.2-0.7-1.4c0-0.3-0.2-0.3-0.3-0.6c0.4,0,0.7,0.2,0.8,0.5
	c0,0.1,0.2,0.1,0.3,0.1c0.2,0.2,0.2,0.6,0.3,0.7s0.5,0.1,0.6,0.4s0.4,0.6,0.5,0.9c0,0.1,0,0.2,0.1,0.3c0.2,0.2,0.2,0.4,0.4,0.6
	c0.4,0.4,0.7,0.9,0.6,1.5C37,5.1,37.4,5,37.5,5.2c0.2,0.4,0.1,1,0.5,1.3c0,0.7,0.2,1.3,0.5,1.9c-0.3,0.7-0.2,1.4,0.1,2.1
	c0,0,0.2,0,0.2-0.1c0.1-0.3,0.7-0.4,0.6-0.6c-0.2-0.5-0.3-0.9-0.3-1.4c0.1-0.5,0.1-1.1,0-1.6l-0.2-0.2c-0.1-0.3-0.1-0.6-0.1-0.9
	c0-0.2-0.2-0.2-0.2-0.4s0-0.2,0-0.3S38.9,5,39.1,5s0,0.3,0.1,0.4c0.2,0.3,0.5,0.5,0.6,0.8c0,0.1,0,0.2,0,0.3c0,0.4,0.3,0.8,0.4,1.1
	S39.9,8.1,40,8.4c0.2,0.6,0.3,1.2,0.2,1.8c0,0.3,0.3,0.5,0.2,0.7s0,0.2-0.1,0.4s-0.1,0.1-0.2,0.2c0.2,0.4-0.1,1-0.2,1.3
	c0,0.1,0.2,0.1,0.3-0.1s0.3-0.1,0.4-0.2C40.9,12.3,40.9,12,40.9,11.8z M42.2,13.2c0.1-0.3,0.1-0.7,0.1-1c-0.1-0.4-0.4,0-0.6,0
	c0.1,0.4,0,0.8-0.2,1.1c-0.1,0.1-0.2,0.5,0,0.4S42.2,13.6,42.2,13.2z M41.7,15c0.1-0.1,0-0.3-0.1-0.4c-0.2-0.1-0.4,0.1-0.5,0.2
	s0,0.5,0.2,0.5C41.4,15.3,41.6,15.1,41.7,15z"/>
<path class="st1" d="M38.1,3.5c0.3,0.3,0.5,0.6,0.7,1v0.1c-0.5,0.4-0.8-0.2-1-0.6c-0.2-0.4-0.4-0.8-0.7-1.1c0-0.1,0-0.1,0-0.2
	c-0.2-0.2-0.4-0.4-0.2-0.5s0.2,0.1,0.4,0.2C37.6,2.8,37.7,3.2,38.1,3.5z"/>
<path class="st1" d="M39.9,1.8c0,0.1-0.1,0.2-0.1,0.2c-0.2-0.2-0.4-0.5-0.6-0.7c-0.1,0-0.2,0-0.2-0.1S39,1,39,1
	c0.2,0,0.4,0.2,0.5,0.3s0.1,0,0.2,0C39.8,1.4,39.9,1.6,39.9,1.8z"/>
<path class="st2" d="M12.2,14.2c0.1,0.1,0.1,0.1,0.2,0.2c0.1,0.1,0.2,0.1,0.3,0c0.1,0,0.2,0.3,0.3,0.3s0.2,0.3,0.4,0.5
	s0.2,0.2,0.3,0.2c0.1,0.2,0.2,0.3,0.4,0.5c0.1,0.1,0.2,0.1,0.4,0.1s0.3,0.4,0.4,0.5c0,0,0.1,0.2,0.1,0.2c0.1,0.1,0.2,0.2,0.3,0.2
	c0.1,0.1,0,0.2,0.1,0.2c0.4,0.5,0.8,1.1,1.2,1.6c0,0.1,0,0.1,0,0.2c0.3,0.4,0.6,0.9,0.9,1.3c0.1,0.2,0.2,0.5,0.3,0.7
	c0.1,0.1,0.2,0.2,0.3,0.3c0.2,0.3,0.3,0.5,0.3,0.8c0,0.1-0.1,0.4-0.3,0.3s-0.2-0.6-0.5-0.8c0-0.1-0.1-0.2-0.1-0.3
	c-0.1-0.1-0.3-0.1-0.3-0.3s-0.2-0.3-0.3-0.4c-0.2-0.4-0.6-0.5-0.9-0.8c-0.1,0-0.1,0-0.2,0c-0.1,0.1-0.2,0.3-0.1,0.5s0.3,0.4,0.6,0.5
	s0.2,0.5,0.3,0.8c0.1,0.1,0.2,0.2,0.4,0.3c0.1,0.1,0.1,0.3,0.2,0.5s-0.1,0.1-0.1,0.2s0.3,0.1,0.4,0.3c0.1-0.1,0.3,0,0.4,0.1
	c-0.2,0.2-0.1,0.3-0.2,0.4s0.2,0.5,0.5,0.7s0.1,0.3,0.3,0.4s0.3,0.2,0.5,0.4s-0.1,0.2-0.1,0.3s0.2,0.2,0.3,0.3
	c0.1,0.1,0.2,0.2,0.2,0.3c-0.2,0-0.5-0.2-0.6-0.2s-0.3-0.3-0.5-0.3S18,25.4,18,25.4l-0.3-0.1c-0.1,0-0.4-0.3-0.5-0.3
	s-0.3,0.2-0.4,0.2c-0.2,0-0.4-0.1-0.6-0.2c-0.2-0.1-0.3-0.1-0.5-0.2c-0.1,0-0.1-0.2-0.2-0.2s-0.3-0.1-0.4-0.1
	c-0.4-0.2-0.7-0.7-1-0.9s-0.4-0.2-0.6-0.3s-0.2-0.2-0.3-0.3c-0.4-0.1-0.8-0.4-1.3-0.6c-0.9-0.1-1.8,0.1-2.5,0.7c-0.1,0-0.1,0-0.2,0
	c-0.2,0.1-0.4,0.2-0.6,0.3c-0.3,0.2-0.5,0.3-0.8,0.4c-0.1,0-0.1,0.2-0.2,0.2s-0.3,0.1-0.5,0.2S7.1,24.4,7,24.5
	c-0.2,0.2-0.5,0.3-0.7,0.5c-0.6,0.2-1.2,0.3-1.8,0.3c-0.4,0-0.6,0.3-1.2,0.3c-0.8,0.1-1.6-0.1-2.3-0.5c-0.1-0.1-0.2-0.5-0.3-0.5
	c-0.3-0.2-0.3-0.6-0.3-0.9C0.2,23.5,0,23.5,0,23.4c0.1-0.8,0.5-1.6,1-2.2c0.1-0.2,0.4-0.3,0.4-0.6c0.2-0.3,0.5-0.6,0.7-0.9
	c0.1-0.1,0-0.3,0-0.4c0.5-0.8,1.2-1.5,1.9-2.1c0.2-0.1,0.3-0.4,0.6-0.4s0.2,0,0.3-0.1c0.1-0.2,0.3-0.4,0.5-0.5
	c0.6-0.4,1.1-1,1.8-1.1c0.1-0.1,0.2-0.2,0.3-0.2s0.3,0,0.4,0c0.5-0.2,1-0.7,1.5-0.8c0.1-0.1,0.2-0.2,0.2-0.1c0.5,0,1-0.4,1.4,0.1
	C11.3,13.9,11.8,14,12.2,14.2z M15.7,19.2V19c-0.2-0.1-0.3-0.5-0.5-0.5c-0.1,0-0.2,0-0.2,0.1c0,0.3,0.1,0.6,0.3,0.9
	c0.1-0.2,0.2-0.2,0.3,0C15.7,19.3,15.7,19.2,15.7,19.2L15.7,19.2z"/>
<path class="st3" d="M65,34.9l-2.3,2.4L56.2,31c-0.8,1.4-1.8,2.7-3,3.8c-1.1,1-2.3,1.8-3.5,2.6l-2.3-2.6c1.2-0.6,2.3-1.3,3.3-2.2
	c0.8-0.8,1.6-1.6,2.2-2.6c0.6-0.9,1-1.9,1.3-2.9c0.3-0.9,0.4-1.9,0.4-2.9v-4.5h3.6v3.8c0,0.7,0,1.4-0.1,2.1c-0.1,0.7-0.2,1.3-0.4,2
	L65,34.9z M72.4,45.9h-3.4V28.8H62v-3.3h7.1v-8.7h3.4L72.4,45.9z"/>
<path class="st3" d="M103.1,33.2H91v1.6h6v7.5H85.4v1.4h12.4V47H81.9v-7.8h11.6v-1.3H81.7v-3.1h5.8v-1.6H75.7V30h27.4V33.2z
	 M96.7,22.9c0,0.9-0.2,1.7-0.6,2.5c-0.4,0.8-0.9,1.4-1.6,2c-0.7,0.6-1.5,1-2.4,1.2c-1.9,0.6-4,0.6-5.9,0c-0.9-0.3-1.7-0.7-2.4-1.2
	c-0.7-0.5-1.2-1.2-1.6-1.9c-0.4-0.8-0.6-1.7-0.6-2.5c0-0.9,0.2-1.8,0.6-2.6c0.4-0.8,0.9-1.5,1.6-2c0.7-0.6,1.5-1,2.4-1.3
	c1.9-0.6,4-0.6,5.9,0c0.9,0.3,1.7,0.7,2.4,1.3c0.7,0.5,1.2,1.2,1.6,2C96.5,21.2,96.7,22.1,96.7,22.9z M93.2,22.9
	c0-0.9-0.4-1.9-1.2-2.4c-0.8-0.6-1.9-0.9-2.9-0.9c-1,0-2,0.3-2.9,0.9C85.4,21.1,85,22,85,22.9c0,0.9,0.4,1.8,1.2,2.3
	c0.8,0.6,1.9,0.9,2.9,0.8c1,0,2.1-0.2,2.9-0.8C92.8,24.8,93.2,23.8,93.2,22.9L93.2,22.9z"/>
<path class="st3" d="M131.8,35.3h-27.3v-3.2h27.3V35.3z M125.9,47h-3.4v-6.7h-12.2v-3.2h15.7V47z M125.8,30.4h-15.5V17.8h15.3v3.2
	h-11.9v1.4h11.5v3.3h-11.5v1.5h12.1V30.4z"/>
<path class="st3" d="M147.2,31.7h-13V18.4h3.4v3.8h6.2v-3.8h3.4L147.2,31.7z M143.7,28.5v-3h-6.2v3H143.7z M156.7,47h-15.7v-8h11.4
	v-1.7h-11.6v-3.2H156v8h-11.3v1.7h12.1L156.7,47z M157,33.2h-3.4v-3.1h-5.5v-3.2h5.5v-2.3h-5.5v-3.2h5.5v-4.5h3.4V33.2z"/>
<path class="st3" d="M177.9,35l-2.3,2.4l-6.4-6.4c-0.8,1.5-1.8,2.8-3,3.9c-1.1,1-2.3,1.9-3.6,2.6l-2.3-2.5c1.2-0.6,2.3-1.4,3.3-2.3
	c0.9-0.8,1.6-1.7,2.2-2.7c0.5-0.9,1-1.8,1.3-2.9c0.3-0.9,0.4-1.9,0.4-2.8v-4.6h3.6v3.9c0,0.7,0,1.4-0.1,2.1
	c-0.1,0.6-0.2,1.3-0.4,1.9L177.9,35z M184.9,45.9h-3.4v-29h3.4V45.9z"/>
</svg>
