<?xml version="1.0" ?><svg id="Icons" style="enable-background:new 0 0 32 32;" version="1.1" viewBox="0 0 32 32" xml:space="preserve" xmlns="http://www.w3.org/2000/svg" xmlns:xlink="http://www.w3.org/1999/xlink"><style type="text/css">
	.st0{fill:none;stroke:#ffffff;stroke-width:2;stroke-linecap:round;stroke-linejoin:round;stroke-miterlimit:10;}
</style><circle class="st0" cx="16" cy="11" r="8"/><path class="st0" d="M8.1,20c2.1,1.9,4.9,3,7.9,3s5.8-1.1,7.9-3"/><line class="st0" x1="16" x2="16" y1="29" y2="23"  style="fill:#fff;"/><path d="M16.7,11.3c0,0-0.1-0.1-0.2-0.1c0,0-0.1-0.1-0.2-0.1c-0.1,0-0.1,0-0.2-0.1c-0.3-0.1-0.7,0-0.9,0.3C15.1,11.5,15,11.7,15,12  c0,0.3,0.1,0.5,0.3,0.7c0.2,0.2,0.4,0.3,0.7,0.3c0.1,0,0.3,0,0.4-0.1s0.2-0.1,0.3-0.2c0.2-0.2,0.3-0.4,0.3-0.7  C17,11.7,16.9,11.5,16.7,11.3z"  style="fill:#fff;"/><path d="M12.7,11.3c0,0-0.1-0.1-0.2-0.1c0,0-0.1-0.1-0.2-0.1c-0.1,0-0.1,0-0.2-0.1c-0.3-0.1-0.7,0-0.9,0.3C11.1,11.5,11,11.7,11,12  c0,0.3,0.1,0.5,0.3,0.7c0.2,0.2,0.4,0.3,0.7,0.3c0.1,0,0.3,0,0.4-0.1s0.2-0.1,0.3-0.2c0.2-0.2,0.3-0.4,0.3-0.7  C13,11.7,12.9,11.5,12.7,11.3z"  style="fill:#fff;"/><path d="M14.7,14.3c0,0-0.1-0.1-0.2-0.1c0,0-0.1-0.1-0.2-0.1c-0.1,0-0.1,0-0.2-0.1c-0.3-0.1-0.7,0-0.9,0.3C13.1,14.5,13,14.7,13,15  c0,0.3,0.1,0.5,0.3,0.7c0.2,0.2,0.4,0.3,0.7,0.3c0.1,0,0.3,0,0.4-0.1s0.2-0.1,0.3-0.2c0.2-0.2,0.3-0.4,0.3-0.7  C15,14.7,14.9,14.5,14.7,14.3z"  style="fill:#fff;"/><path d="M18.7,14.3c0,0-0.1-0.1-0.2-0.1c0,0-0.1-0.1-0.2-0.1c-0.1,0-0.1,0-0.2-0.1c-0.3-0.1-0.7,0-0.9,0.3C17.1,14.5,17,14.7,17,15  c0,0.3,0.1,0.5,0.3,0.7c0.2,0.2,0.4,0.3,0.7,0.3c0.1,0,0.3,0,0.4-0.1s0.2-0.1,0.3-0.2c0.2-0.2,0.3-0.4,0.3-0.7  C19,14.7,18.9,14.5,18.7,14.3z"  style="fill:#fff;"/><path d="M20.7,11.3c0,0-0.1-0.1-0.2-0.1c0,0-0.1-0.1-0.2-0.1c-0.1,0-0.1,0-0.2-0.1c-0.3-0.1-0.7,0-0.9,0.3C19.1,11.5,19,11.7,19,12  c0,0.3,0.1,0.5,0.3,0.7c0.2,0.2,0.4,0.3,0.7,0.3c0.1,0,0.3,0,0.4-0.1s0.2-0.1,0.3-0.2c0.2-0.2,0.3-0.4,0.3-0.7  C21,11.7,20.9,11.5,20.7,11.3z"  style="fill:#fff;"/></svg>